<svg width="30" height="31" viewBox="0 0 30 31" fill="none" xmlns="http://www.w3.org/2000/svg">
<g id="top">
<path id="icon" d="M4.07031 2.37712C4.07031 1.94066 4.24302 1.52208 4.55045 1.21345C4.85787 0.904829 5.27483 0.731445 5.7096 0.731445H24.2882C24.7229 0.731445 25.1399 0.904829 25.4473 1.21345C25.7547 1.52208 25.9275 1.94066 25.9275 2.37712C25.9275 2.81359 25.7547 3.23217 25.4473 3.5408C25.1399 3.84942 24.7229 4.0228 24.2882 4.0228H5.7096C5.27483 4.0228 4.85787 3.84942 4.55045 3.5408C4.24302 3.23217 4.07031 2.81359 4.07031 2.37712ZM16.1573 8.89401L24.3537 17.1224C24.5059 17.2751 24.6265 17.4564 24.7089 17.656C24.7912 17.8555 24.8336 18.0694 24.8336 18.2854C24.8336 18.5013 24.7912 18.7152 24.7089 18.9147C24.6265 19.1143 24.5059 19.2956 24.3537 19.4483C24.2016 19.601 24.021 19.7222 23.8222 19.8048C23.6235 19.8875 23.4105 19.93 23.1953 19.93C22.9802 19.93 22.7671 19.8875 22.5684 19.8048C22.3696 19.7222 22.189 19.601 22.0369 19.4483L16.6382 14.0307V28.708C16.6382 29.1444 16.4655 29.563 16.158 29.8717C15.8506 30.1803 15.4337 30.3537 14.9989 30.3537C14.5641 30.3537 14.1472 30.1803 13.8397 29.8717C13.5323 29.563 13.3596 29.1444 13.3596 28.708V14.0307L7.96088 19.4483C7.65365 19.7567 7.23695 19.93 6.80246 19.93C6.36796 19.93 5.95126 19.7567 5.64403 19.4483C5.33679 19.1399 5.16419 18.7215 5.16419 18.2854C5.16419 18.0694 5.20656 17.8555 5.2889 17.656C5.37123 17.4564 5.4919 17.2751 5.64403 17.1224L13.8405 8.89401C14.1478 8.58583 14.5645 8.41273 14.9989 8.41273C15.4333 8.41273 15.8499 8.58583 16.1573 8.89401Z" fill="white"/>
</g>
</svg>
